<mxfile host="65bd71144e">
    <diagram id="koXbLAuU0xPHTZI7kgfI" name="Page-1">
        <mxGraphModel dx="1046" dy="902" grid="1" gridSize="10" guides="1" tooltips="1" connect="1" arrows="1" fold="1" page="1" pageScale="1" pageWidth="827" pageHeight="1169" math="0" shadow="0">
            <root>
                <mxCell id="0"/>
                <mxCell id="1" parent="0"/>
                <mxCell id="2" value="Browser" style="swimlane;whiteSpace=wrap;html=1;" parent="1" vertex="1">
                    <mxGeometry x="340" y="110" width="200" height="460" as="geometry"/>
                </mxCell>
                <mxCell id="11" value="LightDarkSwitch.tsx" style="rounded=0;whiteSpace=wrap;html=1;align=left;verticalAlign=top;" parent="2" vertex="1">
                    <mxGeometry x="35" y="350" width="120" height="60" as="geometry"/>
                </mxCell>
                <mxCell id="3" value="Server" style="swimlane;whiteSpace=wrap;html=1;" parent="1" vertex="1">
                    <mxGeometry x="140" y="110" width="200" height="460" as="geometry"/>
                </mxCell>
                <mxCell id="16" value="Concern: switching" style="swimlane;horizontal=0;whiteSpace=wrap;html=1;" parent="1" vertex="1">
                    <mxGeometry x="90" y="420" width="440" height="130" as="geometry"/>
                </mxCell>
                <mxCell id="17" value="Concern: app stuff" style="swimlane;horizontal=0;whiteSpace=wrap;html=1;" parent="1" vertex="1">
                    <mxGeometry x="90" y="280" width="440" height="120" as="geometry"/>
                </mxCell>
                <mxCell id="13" value="page.tsx" style="rounded=0;whiteSpace=wrap;html=1;align=left;verticalAlign=top;" parent="17" vertex="1">
                    <mxGeometry x="80" y="10" width="80" height="30" as="geometry"/>
                </mxCell>
                <mxCell id="10" value="features/Dashboard.tsx" style="rounded=0;whiteSpace=wrap;html=1;align=left;verticalAlign=top;" parent="17" vertex="1">
                    <mxGeometry x="274" y="20" width="136" height="30" as="geometry"/>
                </mxCell>
                <mxCell id="14" style="edgeStyle=none;html=1;entryX=0;entryY=0.25;entryDx=0;entryDy=0;" parent="17" source="13" target="10" edge="1">
                    <mxGeometry relative="1" as="geometry"/>
                </mxCell>
                <mxCell id="19" value="about/page.tsx" style="rounded=0;whiteSpace=wrap;html=1;align=left;verticalAlign=top;" vertex="1" parent="17">
                    <mxGeometry x="83" y="50" width="87" height="30" as="geometry"/>
                </mxCell>
                <mxCell id="20" value="features/About.tsx" style="rounded=0;whiteSpace=wrap;html=1;align=left;verticalAlign=top;" vertex="1" parent="17">
                    <mxGeometry x="277" y="60" width="113" height="30" as="geometry"/>
                </mxCell>
                <mxCell id="21" style="edgeStyle=none;html=1;entryX=0;entryY=0.25;entryDx=0;entryDy=0;" edge="1" parent="17" source="19" target="20">
                    <mxGeometry relative="1" as="geometry"/>
                </mxCell>
                <mxCell id="18" value="Concern: loading" style="swimlane;horizontal=0;whiteSpace=wrap;html=1;" parent="1" vertex="1">
                    <mxGeometry x="90" y="140" width="440" height="120" as="geometry"/>
                </mxCell>
                <mxCell id="7" value="ThemeProvider" style="rounded=0;whiteSpace=wrap;html=1;align=left;verticalAlign=top;" parent="18" vertex="1">
                    <mxGeometry x="295" y="20" width="110" height="50" as="geometry"/>
                </mxCell>
                <mxCell id="8" value="layout.tsx" style="rounded=0;whiteSpace=wrap;html=1;align=left;verticalAlign=top;" parent="18" vertex="1">
                    <mxGeometry x="80" y="30" width="80" height="30" as="geometry"/>
                </mxCell>
                <mxCell id="9" style="edgeStyle=none;html=1;" parent="18" source="8" edge="1" target="7">
                    <mxGeometry relative="1" as="geometry">
                        <mxPoint x="270" y="30" as="targetPoint"/>
                    </mxGeometry>
                </mxCell>
                <mxCell id="22" value="Native MUI functionality" style="rounded=1;whiteSpace=wrap;html=1;verticalAlign=top;" vertex="1" parent="1">
                    <mxGeometry x="610" y="80" width="640" height="470" as="geometry"/>
                </mxCell>
                <mxCell id="23" value="&lt;div style=&quot;color: rgb(204, 204, 204); background-color: rgb(31, 31, 31); font-family: Menlo, Monaco, &amp;quot;Courier New&amp;quot;, monospace; line-height: 18px;&quot;&gt;&lt;span style=&quot;color: #dcdcaa;&quot;&gt;useMediaQuery&lt;/span&gt;(&lt;span style=&quot;color: #ce9178;&quot;&gt;'(prefers-color-scheme: dark)'&lt;/span&gt;);&lt;/div&gt;" style="rounded=0;whiteSpace=wrap;html=1;" vertex="1" parent="1">
                    <mxGeometry x="650" y="420" width="400" height="40" as="geometry"/>
                </mxCell>
                <mxCell id="24" value="&lt;div style=&quot;color: rgb(204, 204, 204); background-color: rgb(31, 31, 31); font-family: Menlo, Monaco, &amp;quot;Courier New&amp;quot;, monospace; line-height: 18px;&quot;&gt;&lt;div style=&quot;line-height: 18px;&quot;&gt;&lt;span style=&quot;color: #569cd6;&quot;&gt;const&lt;/span&gt; { &lt;span style=&quot;color: #4fc1ff;&quot;&gt;mode&lt;/span&gt;, &lt;span style=&quot;color: #dcdcaa;&quot;&gt;setMode&lt;/span&gt; } &lt;span style=&quot;color: #d4d4d4;&quot;&gt;=&lt;/span&gt; &lt;span style=&quot;color: #dcdcaa;&quot;&gt;useColorScheme&lt;/span&gt;(); &lt;span style=&quot;color: #6a9955;&quot;&gt;// 'system' | 'light' | 'dark'&lt;/span&gt;&lt;/div&gt;&lt;/div&gt;" style="rounded=0;whiteSpace=wrap;html=1;" vertex="1" parent="1">
                    <mxGeometry x="650" y="470" width="580" height="40" as="geometry"/>
                </mxCell>
                <mxCell id="25" style="edgeStyle=none;html=1;entryX=0;entryY=0.5;entryDx=0;entryDy=0;exitX=1.017;exitY=0.4;exitDx=0;exitDy=0;exitPerimeter=0;" edge="1" parent="1" source="11" target="23">
                    <mxGeometry relative="1" as="geometry"/>
                </mxCell>
                <mxCell id="26" style="edgeStyle=none;html=1;entryX=0;entryY=0.5;entryDx=0;entryDy=0;exitX=1;exitY=0.5;exitDx=0;exitDy=0;" edge="1" parent="1" source="11" target="24">
                    <mxGeometry relative="1" as="geometry"/>
                </mxCell>
                <mxCell id="27" value="&lt;div style=&quot;color: rgb(204, 204, 204); background-color: rgb(31, 31, 31); font-family: Menlo, Monaco, &amp;quot;Courier New&amp;quot;, monospace; line-height: 18px;&quot;&gt;&lt;div style=&quot;line-height: 18px;&quot;&gt;&lt;span style=&quot;color: #c586c0;&quot;&gt;import&lt;/span&gt; &lt;span style=&quot;color: #9cdcfe;&quot;&gt;theme&lt;/span&gt; &lt;span style=&quot;color: #c586c0;&quot;&gt;from&lt;/span&gt; &lt;span style=&quot;color: #ce9178;&quot;&gt;'@/theme'&lt;/span&gt;;&lt;/div&gt;&lt;/div&gt;" style="rounded=0;whiteSpace=wrap;html=1;" vertex="1" parent="1">
                    <mxGeometry x="640" y="150" width="400" height="40" as="geometry"/>
                </mxCell>
                <mxCell id="28" value="&lt;div style=&quot;color: rgb(204, 204, 204); background-color: rgb(31, 31, 31); font-family: Menlo, Monaco, &amp;quot;Courier New&amp;quot;, monospace; line-height: 18px;&quot;&gt;&lt;div style=&quot;line-height: 18px;&quot;&gt;&lt;div style=&quot;line-height: 18px;&quot;&gt;&lt;span style=&quot;color: #808080;&quot;&gt;&amp;lt;&lt;/span&gt;&lt;span style=&quot;color: #4ec9b0;&quot;&gt;InitColorSchemeScript&lt;/span&gt; &lt;span style=&quot;color: #9cdcfe;&quot;&gt;attribute&lt;/span&gt;&lt;span style=&quot;color: #d4d4d4;&quot;&gt;=&lt;/span&gt;&lt;span style=&quot;color: #ce9178;&quot;&gt;&quot;class&quot;&lt;/span&gt; &lt;span style=&quot;color: #9cdcfe;&quot;&gt;defaultMode&lt;/span&gt;&lt;span style=&quot;color: #d4d4d4;&quot;&gt;=&lt;/span&gt;&lt;span style=&quot;color: #ce9178;&quot;&gt;&quot;light&quot;&lt;/span&gt; &lt;span style=&quot;color: #808080;&quot;&gt;/&amp;gt;&lt;/span&gt;&lt;/div&gt;&lt;/div&gt;&lt;/div&gt;" style="rounded=0;whiteSpace=wrap;html=1;" vertex="1" parent="1">
                    <mxGeometry x="640" y="250" width="580" height="40" as="geometry"/>
                </mxCell>
                <mxCell id="29" style="edgeStyle=none;html=1;entryX=0;entryY=0.5;entryDx=0;entryDy=0;" edge="1" parent="1" source="7" target="27">
                    <mxGeometry relative="1" as="geometry"/>
                </mxCell>
                <mxCell id="30" style="edgeStyle=none;html=1;entryX=0;entryY=0.5;entryDx=0;entryDy=0;" edge="1" parent="1" source="8" target="28">
                    <mxGeometry relative="1" as="geometry">
                        <Array as="points">
                            <mxPoint x="370" y="230"/>
                        </Array>
                    </mxGeometry>
                </mxCell>
                <mxCell id="31" value="&lt;div style=&quot;color: rgb(204, 204, 204); background-color: rgb(31, 31, 31); font-family: Menlo, Monaco, &amp;quot;Courier New&amp;quot;, monospace; line-height: 18px;&quot;&gt;&lt;div style=&quot;line-height: 18px;&quot;&gt;&lt;div style=&quot;line-height: 18px;&quot;&gt;&lt;span style=&quot;color: #808080;&quot;&gt;&amp;lt;&lt;/span&gt;&lt;span style=&quot;color: #569cd6;&quot;&gt;html&lt;/span&gt; &lt;span style=&quot;color: #9cdcfe;&quot;&gt;lang&lt;/span&gt;&lt;span style=&quot;color: #d4d4d4;&quot;&gt;=&lt;/span&gt;&lt;span style=&quot;color: #ce9178;&quot;&gt;&quot;en&quot;&lt;/span&gt; &lt;span style=&quot;color: #9cdcfe;&quot;&gt;suppressHydrationWarning&lt;/span&gt;&lt;span style=&quot;color: #808080;&quot;&gt;&amp;gt;&lt;/span&gt;&lt;/div&gt;&lt;/div&gt;&lt;/div&gt;" style="rounded=0;whiteSpace=wrap;html=1;" vertex="1" parent="1">
                    <mxGeometry x="640" y="200" width="400" height="40" as="geometry"/>
                </mxCell>
                <mxCell id="32" style="edgeStyle=none;html=1;entryX=0;entryY=0.5;entryDx=0;entryDy=0;" edge="1" parent="1" source="8" target="31">
                    <mxGeometry relative="1" as="geometry">
                        <Array as="points">
                            <mxPoint x="380" y="220"/>
                        </Array>
                    </mxGeometry>
                </mxCell>
            </root>
        </mxGraphModel>
    </diagram>
</mxfile>